<svg xmlns="http://www.w3.org/2000/svg" viewBox="0 0 576 512"><path d="M75.67,43.67C42.21,43.67,15,70.87,15,104.33v303.33c0,33.46,27.21,60.67,60.67,60.67h424.67	c33.46,0,60.67-27.21,60.67-60.67V104.33c0-33.46-27.21-60.67-60.67-60.67H75.67z M151.5,286.33h60.67 c41.9,0,75.83,33.94,75.83,75.83c0,8.34-6.83,15.17-15.17,15.17h-182c-8.34,0-15.17-6.83-15.17-15.17 C75.67,320.27,109.6,286.33,151.5,286.33z M121.17,195.33c0-33.51,27.16-60.67,60.67-60.67s60.67,27.16,60.67,60.67 S215.34,256,181.83,256S121.17,228.84,121.17,195.33z M363.83,165h121.33c8.34,0,15.17,6.82,15.17,15.17 c0,8.34-6.83,15.17-15.17,15.17H363.83c-8.34,0-15.17-6.82-15.17-15.17C348.67,171.82,355.49,165,363.83,165z M363.83,225.67h121.33 c8.34,0,15.17,6.82,15.17,15.17c0,8.34-6.83,15.17-15.17,15.17H363.83c-8.34,0-15.17-6.82-15.17-15.17 C348.67,232.49,355.49,225.67,363.83,225.67z M363.83,286.33h121.33c8.34,0,15.17,6.83,15.17,15.17s-6.83,15.17-15.17,15.17H363.83 c-8.34,0-15.17-6.83-15.17-15.17S355.49,286.33,363.83,286.33z"/></svg>
