<svg xmlns="http://www.w3.org/2000/svg" viewBox="0 0 452 512"><path d="M360.47,87.59c-23.5-23.5-61.65-23.5-85.15,0L98.09,264.83c-40.55,40.55-40.55,106.24,0,146.8s106.24,40.55,146.8,0 l146.41-146.41c10.5-10.5,27.64-10.5,38.14,0c10.5,10.5,10.5,27.64,0,38.14L283.03,449.77c-61.65,61.65-161.44,61.65-223.08,0 s-61.65-161.44,0-223.08L237.18,49.45c44.6-44.6,116.84-44.6,161.44,0s44.6,116.84,0,161.44L229.09,380.41 c-27.55,27.55-72.24,27.55-99.79,0c-27.55-27.55-27.55-72.24,0-99.79L268,141.92c10.5-10.5,27.64-10.5,38.14,0 c10.5,10.5,10.5,27.64,0,38.14l-138.7,138.7c-6.45,6.45-6.45,17.05,0,23.5c6.45,6.45,17.05,6.45,23.5,0l169.53-169.53 C383.97,149.24,383.97,111.09,360.47,87.59L360.47,87.59z"/></svg>
