<svg xmlns="http://www.w3.org/2000/svg" viewBox="0 0 450 512"><path d="M225.4,16.1c-16.6,0-30,13.4-30,30v18c-68.4,13.9-120,74.4-120,147v17.6c0,44.1-16.2,86.6-45.5,119.6l-6.9,7.8 c-7.9,8.8-9.8,21.5-5,32.2s15.6,17.7,27.4,17.7h360c11.8,0,22.5-6.9,27.4-17.7c4.9-10.8,2.9-23.4-5-32.3l-6.9-7.8 c-29.3-33-45.5-75.5-45.5-119.6v-17.6c0-72.6-51.6-133.1-120-147v-18C255.4,29.5,242,16.1,225.4,16.1z M267.9,478.5 c11.3-11.3,17.5-26.5,17.5-42.5h-60h-60c0,15.9,6.3,31.2,17.5,42.5s26.5,17.5,42.5,17.5S256.6,489.8,267.9,478.5z"/></svg>
