<svg xmlns="http://www.w3.org/2000/svg" viewBox="0 0 512 512"><path d="M449,36H63C28.2,36,0,64.2,0,99v314c0,34.8,28.2,63,63,63h386c34.8,0,63-28.2,63-63V99C512,64.2,483.8,36,449,36z M158,417 c0,6.4-5.1,11.5-11.5,11.5h-97c-6.4,0-11.5-5.1-11.5-11.5V95c0-6.4,5.1-11.5,11.5-11.5h97c6.4,0,11.5,5.1,11.5,11.5V417z M316,226.5 c0,6.4-5.1,11.5-11.5,11.5h-97c-6.4,0-11.5-5.1-11.5-11.5V95c0-6.4,5.1-11.5,11.5-11.5h97c6.4,0,11.5,5.1,11.5,11.5V226.5z M474,354.5c0,6.4-5.1,11.5-11.5,11.5h-97c-6.4,0-11.5-5.1-11.5-11.5V95c0-6.4,5.1-11.5,11.5-11.5h97c6.4,0,11.5,5.1,11.5,11.5 V354.5z"/></svg>
