<svg xmlns="http://www.w3.org/2000/svg" viewBox="0 0 302 256"><path d="M0,233.52C0,245.93,10.07,256,22.48,256h257.03c12.41,0,22.48-10.07,22.48-22.48V89.94H0V233.52z M212.89,117.41c0-4.85,3.93-8.78,8.78-8.78h38.67c4.85,0,8.78,3.93,8.78,8.78v38.67c0,4.85-3.93,8.78-8.78,8.78h-38.67	c-4.85,0-8.78-3.93-8.78-8.78V117.41z M212.89,189.86c0-4.85,3.93-8.78,8.78-8.78h38.67c4.85,0,8.78,3.93,8.78,8.78v38.67	c0,4.85-3.93,8.78-8.78,8.78h-38.67c-4.85,0-8.78-3.93-8.78-8.78V189.86z M122.89,117.41c0-4.85,3.93-8.78,8.78-8.78h38.67 c4.85,0,8.78,3.93,8.78,8.78v38.67c0,4.85-3.93,8.78-8.78,8.78h-38.67c-4.85,0-8.78-3.93-8.78-8.78V117.41z M122.89,189.86 c0-4.85,3.93-8.78,8.78-8.78h38.67c4.85,0,8.78,3.93,8.78,8.78v38.67c0,4.85-3.93,8.78-8.78,8.78h-38.67 c-4.85,0-8.78-3.93-8.78-8.78V189.86z M32.89,117.41c0-4.85,3.93-8.78,8.78-8.78h38.67c4.85,0,8.78,3.93,8.78,8.78v38.67	c0,4.85-3.93,8.78-8.78,8.78H41.67c-4.85,0-8.78-3.93-8.78-8.78V117.41z M32.89,189.86c0-4.85,3.93-8.78,8.78-8.78h38.67 c4.85,0,8.78,3.93,8.78,8.78v38.67c0,4.85-3.93,8.78-8.78,8.78H41.67c-4.85,0-8.78-3.93-8.78-8.78V189.86z"/><path d="M279.52,29.98h-29.29V14.99c0-8.29-6.7-14.99-14.99-14.99c-8.29,0-14.99,6.7-14.99,14.99v14.99H72.08V14.99 C72.08,6.7,65.38,0,57.09,0C48.8,0,42.1,6.7,42.1,14.99v14.99H22.48C10.07,29.98,0,40.05,0,52.46v22.48h302V52.46 C302,40.05,291.93,29.98,279.52,29.98z"/></svg>
