<svg xmlns="http://www.w3.org/2000/svg" viewBox="0 0 585 512"><path d="M292.5,461.9c151.5,0,274.2-99.7,274.2-222.8S444,16.3,292.5,16.3S18.3,116,18.3,239.1c0,48.3,19,93,51.1,129.5 c-2,26.2-12.2,49.6-22.9,67.4c-5.9,9.9-11.9,17.8-16.3,23.1c-2.2,2.7-4,4.7-5.2,6.1c-0.6,0.6-1.1,1.2-1.4,1.5l-0.3,0.3l0,0l0,0l0,0 l0,0c-4.9,4.9-6.3,12.2-3.6,18.6c2.7,6.4,8.9,10.6,15.9,10.6c30.7,0,61.7-9.5,87.4-20.7c24.5-10.7,45.4-23.5,58.2-32.8 c34.1,12.3,71.8,19.2,111.5,19.2V461.9z M155.4,204.8c18.9,0,34.3,15.3,34.3,34.3c0,18.9-15.3,34.3-34.3,34.3s-34.3-15.3-34.3-34.3 C121.1,220.2,136.5,204.8,155.4,204.8z M292.5,204.8c18.9,0,34.3,15.3,34.3,34.3c0,18.9-15.3,34.3-34.3,34.3 c-18.9,0-34.3-15.3-34.3-34.3C258.2,220.2,273.6,204.8,292.5,204.8z M395.4,239.1c0-18.9,15.3-34.3,34.3-34.3 c18.9,0,34.3,15.3,34.3,34.3c0,18.9-15.3,34.3-34.3,34.3C410.7,273.4,395.4,258,395.4,239.1z"/></svg>
