<svg xmlns="http://www.w3.org/2000/svg" viewBox="0 0 640 512"><path d="M50.8,16.1c-10-7.8-24.4-6-32.3,3.9s-6,24.4,3.9,32.3L589,496.3c10,7.8,24.4,6,32.3-3.9s6-24.4-3.9-32.3l-100.7-78.9 c37.9-38.9,63.5-82.4,76.5-113.3c3.2-7.6,3.2-16,0-23.5c-14.3-34.2-44.2-83.9-89-125.5c-45-41.9-106.9-77.1-184.2-77.1 c-65.3,0-119.6,25.2-162,58.2L50.8,16.1z M227.2,154.3c24.4-22.3,57-35.9,92.7-35.9c76.1,0,137.8,61.7,137.8,137.8 c0,23.8-6,46.2-16.7,65.7l-36.9-28.9c8-18.5,10.1-39.6,4.6-60.6c-10.6-39.7-45.7-66.4-84.8-68c-5.6-0.2-8.8,5.8-7.1,11.2 c2,6.1,3.2,12.6,3.2,19.4c0,9.8-2.3,18.9-6.3,27.1L227.2,154.3L227.2,154.3z M370.7,384.4c-15.7,6.2-32.8,9.7-50.7,9.7 c-76.1,0-137.8-61.7-137.8-137.8c0-6.6,0.5-13,1.3-19.3l-90.2-71.1c-21.8,28.4-37.4,56.8-46.5,78.7c-3.2,7.6-3.2,16,0,23.5 c14.3,34.2,44.2,83.9,89,125.5c45,41.9,106.9,77.1,184.2,77.1c45.7,0,86-12.3,120.8-31.1L370.7,384.4z"/></svg>
