<svg xmlns="http://www.w3.org/2000/svg" viewBox="0 0 487 512"><path d="M42.7,0c23.6,0,42.7,19.1,42.7,42.7v426.6c0,23.6-19.1,42.7-42.7,42.7S0,492.9,0,469.3V42.7C0.1,19.1,19.2,0,42.7,0z M447.9,298.7H273.8c-0.1,0-0.1,0.1,0,0.1l54.4,54.4c16.5,16.5,17.5,43.3,1.5,60.2c-16.6,17.5-44.2,17.8-61.2,0.8L140.5,286.3 c-16.7-16.7-16.7-43.8,0-60.5L268.4,97.8c16.7-16.7,43.7-16.7,60.4,0l0,0c16.7,16.7,16.7,43.7,0,60.4l-55,54.9v0.1 c58,0.1,115.9,0.1,174,0.2c21.6,0,39.1,17.6,39.1,39.2v6.7C487.1,281,469.5,298.7,447.9,298.7z"/></svg>
