<svg xmlns="http://www.w3.org/2000/svg" viewBox="0 0 512 512"><path d="M256,501c135.31,0,245-109.69,245-245S391.31,11,256,11S11,120.69,11,256S120.69,501,256,501z M217.72,332.56h22.97v-61.25 h-22.97c-12.73,0-22.97-10.24-22.97-22.97c0-12.73,10.24-22.97,22.97-22.97h45.94c12.73,0,22.97,10.24,22.97,22.97v84.22h7.66 c12.73,0,22.97,10.24,22.97,22.97s-10.24,22.97-22.97,22.97h-76.56c-12.73,0-22.97-10.24-22.97-22.97S204.99,332.56,217.72,332.56z M256,133.5c16.91,0,30.63,13.71,30.63,30.63s-13.71,30.63-30.63,30.63s-30.63-13.71-30.63-30.63S239.09,133.5,256,133.5z"/></svg>
