<svg xmlns="http://www.w3.org/2000/svg" viewBox="0 0 512 512"><path d="M332.56,347.88c93.02,0,168.44-75.41,168.44-168.44S425.59,11,332.56,11S164.13,86.41,164.13,179.44 c0,17.9,2.78,35.22,7.94,51.39L17.7,385.2c-4.31,4.31-6.7,10.14-6.7,16.27v76.56C11,490.76,21.24,501,33.97,501h76.56 c12.73,0,22.97-10.24,22.97-22.97v-38.28h38.28c12.73,0,22.97-10.24,22.97-22.97V378.5h38.28c6.13,0,11.96-2.39,16.27-6.7 l31.87-31.87C297.34,345.1,314.67,347.88,332.56,347.88z M370.84,102.88c21.14,0,38.28,17.14,38.28,38.28s-17.14,38.28-38.28,38.28 s-38.28-17.14-38.28-38.28S349.7,102.88,370.84,102.88z"/></svg>
