<svg xmlns="http://www.w3.org/2000/svg" viewBox="0 0 512 512"><path d="M262.5,7.7C125.4,7.7,14.2,118.9,14.2,256s111.2,248.3,248.3,248.3S510.8,393.1,510.8,256S399.6,7.7,262.5,7.7z M189.6,388 h-54.7V211.7h54.7V388z M162.2,187.7c-17.5,0-31.7-14.5-31.7-32c0-17.5,14.2-31.7,31.7-31.7c17.5,0,31.7,14.2,31.7,31.7 C193.9,173.2,179.7,187.7,162.2,187.7z M394.5,388L394.5,388h-54.7v-85.8c0-20.4-0.4-46.7-28.5-46.7c-28.5,0-32.8,22.2-32.8,45.2 V388h-54.7V211.7h52.5v24h0.8c7.3-13.8,25.2-28.5,51.8-28.5c55.4,0,65.6,36.5,65.6,83.9V388z"/></svg>
