<svg xmlns="http://www.w3.org/2000/svg" width="512" height="512" viewBox="0 0 512 512"><path d="M293.66,406.53a32.06,32.06,0,0,1,2.2,9.23,6.36,6.36,0,0,1-1.94,5.32q-2.09,1.82-6.89,2.34a127.24,127.24,0,0,1-12.86.52q-8.06,0-12.85-.39a29.39,29.39,0,0,1-7.28-1.3,7.6,7.6,0,0,1-3.63-2.47,20.18,20.18,0,0,1-2.21-3.89l-28.84-81.83H79.61L52.07,414.85a13.6,13.6,0,0,1-2.07,4,10.13,10.13,0,0,1-3.77,2.86,23.21,23.21,0,0,1-7,1.69,110.08,110.08,0,0,1-11.82.52,95.77,95.77,0,0,1-12.34-.65q-4.82-.66-6.76-2.47a6.55,6.55,0,0,1-1.81-5.32,32.13,32.13,0,0,1,2.2-9.23L121.43,94a13.45,13.45,0,0,1,2.73-4.68,11.35,11.35,0,0,1,4.93-2.86,37.53,37.53,0,0,1,8.32-1.43q5.06-.39,12.86-.39,8.31,0,13.76.39a41.09,41.09,0,0,1,8.84,1.43,11.7,11.7,0,0,1,5.19,3,14,14,0,0,1,2.86,4.81ZM149,130.92h-.26L90.78,298.47H207.67Z"/><path d="M505.52,416.15a5.48,5.48,0,0,1-2.07,4.67,14.66,14.66,0,0,1-5.72,2.34,54.45,54.45,0,0,1-10.65.78,59.12,59.12,0,0,1-10.78-.78,12.76,12.76,0,0,1-5.85-2.34,5.82,5.82,0,0,1-1.81-4.67V392.77a115.48,115.48,0,0,1-34.16,25.45,90.62,90.62,0,0,1-39.88,9.1,108.81,108.81,0,0,1-33.38-4.81,71.94,71.94,0,0,1-25.45-13.9,62.32,62.32,0,0,1-16.37-22.34q-5.85-13.25-5.84-30.13,0-19.74,8.05-34.29a66.94,66.94,0,0,1,23.12-24.16q15.06-9.6,36.89-14.42t49.09-4.8h32.21V260.29a90.2,90.2,0,0,0-2.86-23.9,40.93,40.93,0,0,0-9.22-17.28,39.72,39.72,0,0,0-16.49-10.39q-10.14-3.51-24.94-3.5A99.18,99.18,0,0,0,381,209a152.18,152.18,0,0,0-22.08,8.31q-9.5,4.56-15.85,8.32c-4.25,2.51-7.4,3.76-9.48,3.76a6.35,6.35,0,0,1-3.64-1,8.77,8.77,0,0,1-2.73-3.11,15.93,15.93,0,0,1-1.68-5.33,44.82,44.82,0,0,1-.52-7.14,45.42,45.42,0,0,1,.91-10.26,14.84,14.84,0,0,1,4.41-7.15q3.51-3.36,12.08-7.92a132.81,132.81,0,0,1,19.74-8.31,180.26,180.26,0,0,1,24.42-6.24,146.23,146.23,0,0,1,26.76-2.46q25.19,0,42.86,5.71t28.57,16.76a64.79,64.79,0,0,1,15.85,27.4q4.94,16.36,4.93,38.19Zm-42.6-106.77H426.29a138.23,138.23,0,0,0-30.65,3q-13,3-21.56,8.83a36.61,36.61,0,0,0-12.6,14,42.16,42.16,0,0,0-4,18.83q0,18.18,11.56,29t32.34,10.79a60.12,60.12,0,0,0,31.3-8.58q14.41-8.57,30.26-26.23Z"/></svg>
