<svg xmlns="http://www.w3.org/2000/svg" viewBox="0 0 512 512"><path d="M471.9,501.6c-5.9,0-11.7-2.2-16.2-6.7L346,385.2c-8.4,3.9-18.7,2.5-25.7-4.4c-35.4-34.7-93.1-34.7-128.5,0 c-9,8.9-23.6,8.7-32.4-0.3s-8.7-23.6,0.3-32.4c25.9-25.4,60.1-39.3,96.4-39.3c4.8,0,9.5,0.2,14.1,0.7l-63.5-63.5 c-35.9,8.8-68.6,27-95.1,53c-9,8.9-23.6,8.7-32.4-0.3c-8.9-9-8.7-23.6,0.3-32.4c26-25.5,56.8-44.8,90.5-57l-52.5-52.5 c-27.4,13.1-52.8,30-75.5,50.3c-9.4,8.4-23.9,7.6-32.4-1.8c-8.4-9.4-7.6-23.9,1.8-32.4c22-19.6,46.1-36.5,71.9-50.3L10.4,49.6 c-9-9-9-23.5,0-32.4c9-9,23.5-9,32.4,0l95.5,95.5c0.3,0.2,0.5,0.5,0.7,0.7l90.6,90.6c0.5,0.4,0.9,0.9,1.3,1.3l257.2,257.2 c9,9,9,23.5,0,32.4C483.6,499.3,477.7,501.6,471.9,501.6z M256.2,469.3H256c-12.7,0-22.9-10.3-22.9-22.9s10.3-22.9,22.9-22.9h0.2 c12.7,0,22.9,10.3,22.9,22.9S268.9,469.3,256.2,469.3z M416.6,305.4c-5.8,0-11.6-2.2-16.1-6.6c-12.4-12.2-26.4-22.8-41.4-31.4 c-11-6.3-14.7-20.4-8.4-31.3c6.3-11,20.4-14.7,31.3-8.4c18.4,10.6,35.5,23.6,50.6,38.4c9,8.9,9.2,23.4,0.3,32.4 C428.5,303.1,422.5,305.4,416.6,305.4z M485.4,212.8c-5.4,0-10.9-1.9-15.3-5.8c-65.7-58.8-153.8-88.2-241.7-80.6 c-12.6,1.1-23.7-8.3-24.8-20.9c-1.1-12.6,8.3-23.7,20.9-24.8c50.2-4.3,99.9,1.6,147.6,17.5c47.8,15.9,91,41,128.6,74.6 c9.4,8.4,10.3,23,1.8,32.4C498,210.2,491.7,212.8,485.4,212.8z"/></svg>
