<svg xmlns="http://www.w3.org/2000/svg" viewBox="0 0 512 512"><path d="M400.8,232.5l10.6-10.6l-31.8-31.8l-58.3-58.3L289.5,100l-10.6,10.6l-21.2,21.2L70.7,318.8c-9.8,9.8-16.9,21.9-20.8,35.1 l-33.2,113c-2.3,7.9-0.2,16.4,5.7,22.2c5.9,5.8,14.4,8,22.2,5.7l112.9-33.2c13.2-3.9,25.3-11.1,35.1-20.8l186.9-186.9L400.8,232.5z M165.9,390.6l-8.5,21.3c-3.8,2.9-8,5.1-12.5,6.5l-73.4,21.6l21.6-73.3c1.3-4.6,3.6-8.8,6.5-12.5l21.3-8.5v30c0,8.3,6.8,15,15,15 L165.9,390.6L165.9,390.6z M356.1,33.3l-13.5,13.6l-21.2,21.2l-10.7,10.6l31.8,31.8l58.3,58.3l31.8,31.8l10.6-10.6l21.2-21.2 l13.6-13.6c23.5-23.5,23.5-61.5,0-84.9l-36.9-37C417.7,9.8,379.7,9.8,356.1,33.3L356.1,33.3 M311.6,190.9L176.5,326.1 c-5.8,5.8-15.4,5.8-21.2,0s-5.8-15.4,0-21.2l135.1-135.1c5.8-5.8,15.4-5.8,21.2,0C317.4,175.6,317.4,185.1,311.6,190.9L311.6,190.9z"/></svg>
