<svg xmlns="http://www.w3.org/2000/svg" viewBox="0 0 512 512"><path d="M449,476H63c-34.8,0-63-28.2-63-63V99c0-34.8,28.2-63,63-63h386c34.8,0,63,28.2,63,63v314C512,447.8,483.8,476,449,476z M196.1,256c0-33.1,26.8-60,60-60s60,26.8,60,60s-26.8,60-60,60S196.1,289.2,196.1,256z M435.9,189c-3.3-8.9-7.3-17.5-11.8-25.7 l-3.5-6.1c-4.9-8.2-10.5-16-16.6-23.4c-4.4-5.3-11.8-7.2-18.4-5.1L343.9,142c-10-7.7-21.1-14.2-33-19l-9.4-42.8 c-1.5-6.8-6.7-12.2-13.6-13.3c-10.3-1.7-21-2.6-31.9-2.6s-21.5,0.9-31.9,2.7c-6.9,1.1-12.1,6.5-13.6,13.3l-9.4,42.8 c-11.8,4.9-22.9,11.3-33,19l-41.8-13.3c-6.6-2.1-13.9-0.3-18.4,5.1c-6.1,7.3-11.6,15.1-16.6,23.4l-3.5,6.1 c-4.6,8.2-8.5,16.8-11.8,25.7c-2.4,6.5-0.4,13.8,4.8,18.4l32.5,29.5c-0.8,6.2-1.3,12.6-1.3,19c0,6.4,0.4,12.8,1.3,19.1l-32.5,29.5 c-5.2,4.6-7.2,11.9-4.8,18.4c3.3,8.9,7.3,17.5,11.8,25.7l3.5,6.1c4.9,8.2,10.5,16,16.6,23.4c4.4,5.3,11.8,7.2,18.4,5.1l41.7-13.3 c10,7.7,21.1,14.2,33,19l9.4,42.8c1.5,6.8,6.7,12.2,13.6,13.3c10.3,1.7,21,2.6,31.9,2.6s21.5-0.9,31.9-2.6 c6.9-1.1,12.1-6.5,13.6-13.3l9.4-42.8c11.8-4.9,22.9-11.3,33-19l41.8,13.3c6.6,2.1,13.9,0.3,18.4-5.1c6.1-7.3,11.6-15.1,16.6-23.4 l3.5-6.1c4.6-8.2,8.5-16.8,11.8-25.7c2.4-6.5,0.4-13.8-4.8-18.4l-32.5-29.5c0.8-6.2,1.3-12.6,1.3-19c0-6.4-0.4-12.8-1.3-19 l32.5-29.5C436.2,202.8,438.3,195.5,435.9,189L435.9,189z"/></svg>
