<svg xmlns="http://www.w3.org/2000/svg" viewBox="0 0 512 512"><path d="M72.3,41.6C38.5,41.6,11,69.1,11,102.9v61.3c0,33.8,27.5,61.3,61.3,61.3h367.5c33.8,0,61.3-27.5,61.3-61.3v-61.3 c0-33.8-27.5-61.3-61.3-61.3H72.3z M340.2,110.5c12.7,0,23,10.3,23,23s-10.3,23-23,23s-23-10.3-23-23S327.5,110.5,340.2,110.5z M386.2,133.5c0-12.7,10.3-23,23-23s23,10.3,23,23s-10.3,23-23,23S386.2,146.2,386.2,133.5z M72.3,286.6 c-33.8,0-61.3,27.5-61.3,61.3v61.3c0,33.8,27.5,61.3,61.3,61.3h367.5c33.8,0,61.3-27.5,61.3-61.3v-61.3c0-33.8-27.5-61.3-61.3-61.3 H72.3z M340.2,355.5c12.7,0,23,10.3,23,23s-10.3,23-23,23s-23-10.3-23-23S327.5,355.5,340.2,355.5z M393.8,378.5 c0-12.7,10.3-23,23-23s23,10.3,23,23s-10.3,23-23,23S393.8,391.2,393.8,378.5z"/></svg>
