<svg xmlns="http://www.w3.org/2000/svg" viewBox="0 0 512 512"><path d="M480.9,172.2c3,8.2,0.5,17.3-6,23.1l-40.6,36.9c1,7.8,1.6,15.8,1.6,23.8c0,8.1-0.6,16-1.6,23.8l40.6,36.9 c6.5,5.8,9,14.9,6,23.1c-4.1,11.2-9.1,21.8-14.8,32.2l-4.4,7.6c-6.2,10.3-13.1,20.1-20.7,29.3c-5.5,6.8-14.7,9-23,6.4l-52.2-16.6 c-12.6,9.7-26.4,17.7-41.3,23.8L312.8,476c-1.9,8.5-8.4,15.3-17.1,16.7c-12.9,2.2-26.3,3.3-39.9,3.3s-26.9-1.1-39.9-3.3 c-8.6-1.4-15.2-8.2-17.1-16.7l-11.7-53.5c-14.8-6.1-28.7-14.2-41.3-23.8l-52.1,16.7c-8.3,2.6-17.4,0.3-23-6.4 c-7.6-9.2-14.5-18.9-20.7-29.3l-4.4-7.6c-5.7-10.3-10.7-21-14.8-32.2c-3-8.2-0.5-17.3,6-23.1l40.6-36.9c-1-7.9-1.6-15.8-1.6-23.9 s0.6-16,1.6-23.8L37,195.2c-6.5-5.8-9-14.9-6-23.1C35.1,161,40,150.3,45.8,140l4.4-7.6c6.2-10.3,13.1-20.1,20.7-29.3 c5.5-6.8,14.7-9,23-6.4l52.2,16.6c12.6-9.7,26.4-17.7,41.3-23.8L199.1,36c1.9-8.5,8.4-15.3,17.1-16.7c12.9-2.3,26.3-3.4,39.9-3.4 s26.9,1.1,39.9,3.3c8.6,1.4,15.2,8.2,17.1,16.7l11.7,53.5c14.8,6.1,28.7,14.2,41.3,23.8l52.2-16.6c8.3-2.6,17.4-0.3,23,6.4 c7.6,9.2,14.5,18.9,20.7,29.3l4.4,7.6C471.9,150.2,476.9,160.9,480.9,172.2L480.9,172.2z M256,331c41.4,0,75-33.6,75-75 s-33.6-75-75-75s-75,33.6-75,75S214.6,331,256,331z"/></svg>
