<svg xmlns="http://www.w3.org/2000/svg" viewBox="0 0 487 512"><path d="M42.7,0c23.6,0,42.7,19.1,42.7,42.7v426.6c0,23.6-19.1,42.7-42.7,42.7S0,492.9,0,469.3V42.7C0.1,19.1,19.2,0,42.7,0z M167.3,213.4h174c0.1,0,0.1-0.1,0-0.1L286.9,159c-16.5-16.5-17.5-43.3-1.5-60.2c16.6-17.5,44.2-17.8,61.2-0.8l127.9,127.9 c16.7,16.7,16.7,43.8,0,60.5L346.6,414.2c-16.7,16.7-43.7,16.7-60.4,0l0,0c-16.7-16.7-16.7-43.7,0-60.4l54.9-54.9v-0.1 c-58-0.1-115.9-0.1-174-0.2c-21.6,0-39.1-17.6-39.1-39.2v-6.7C128,231,145.5,213.4,167.3,213.4z"/></svg>
