<svg xmlns="http://www.w3.org/2000/svg" viewBox="0 0 576 512"><path d="M280.9,0c8.8,0,16.9,5,20.8,12.8l71.6,140.5L529.1,178c8.7,1.4,15.9,7.5,18.6,15.9c2.7,8.4,0.5,17.5-5.6,23.8L430.5,329.2 l24.6,155.8c1.4,8.7-2.2,17.4-9.4,22.6c-7.1,5.2-16.6,5.9-24.4,1.9L280.9,438l-140.6,71.5c-7.8,4-17.2,3.2-24.4-1.9 c-7.1-5.2-10.7-13.8-9.4-22.6l24.5-155.8L19.7,217.6c-6.2-6.2-8.4-15.4-5.6-23.8s9.8-14.5,18.6-15.9l155.8-24.7l71.7-140.5 C264.1,5,272.2,0,280.9,0L280.9,0z M280.9,74.8l-56.3,110.3c-3.4,6.6-9.7,11.3-17.1,12.5L85.2,217l87.5,87.6 c5.3,5.3,7.7,12.8,6.5,20.2L159.9,447l110.4-56.1c6.6-3.4,14.5-3.4,21.2,0L401.9,447l-19.3-122.3c-1.2-7.4,1.3-14.9,6.5-20.2 l87.5-87.6l-122.3-19.5c-7.4-1.2-13.7-5.8-17.1-12.5C337.2,185.1,280.9,74.8,280.9,74.8z"/></svg>
