<svg xmlns="http://www.w3.org/2000/svg" viewBox="0 0 795 512"><path d="M170.6,205c44.2,0,80-42.3,80-94.5c0-52.2-35.8-94.5-80-94.5c-44.2,0-80,42.3-80,94.5C90.6,162.7,126.4,205,170.6,205z"/><path d="M261.7,277.1c5.8-3.5,12.2-5.8,18.8-6.9c-13.4-19-23-39.3-28.5-63.6c-1.5-8.9-13.7-9.9-22.7-2.6 c-16.9,13.8-36.7,23.1-58.7,23.1c-22.5,0-43.1-8.9-59.7-23.9c-5.3-4.8-13.1-5.5-19.2-1.8c-31.5,19.2-55.3,49.7-65.7,86 c-2.8,9.7-0.8,20.2,5.3,28.3c6.1,8.1,15.6,12.8,25.7,12.8h144.1C218.4,308.5,238.7,291.1,261.7,277.1z"/><path d="M624.3,205c44.2,0,80-42.3,80-94.5c0-52.2-35.8-94.5-80-94.5c-44.2,0-80,42.3-80,94.5C544.3,162.7,580.1,205,624.3,205z"/><path d="M768.8,287.3c-10.4-36.2-34.2-66.7-65.7-86c-6.1-3.7-13.9-3-19.2,1.8c-16.6,15-37.2,23.9-59.7,23.9 c-22,0-41.8-9.2-58.7-23.1c-9.1-7.4-21.2-6.3-22.7,2.6c-5.5,24.3-15,44.7-28.5,63.6c6.6,1.1,13,3.4,18.8,6.9 c23,14,43.4,31.4,60.6,51.3h144.1c10.1,0,19.6-4.8,25.7-12.8C769.7,307.5,771.6,297,768.8,287.3z"/><path d="M517.2,302.5c-9.3-5.8-21.3-4.9-29.5,2.4c-25.2,22.2-56.4,35.4-90.3,35.4c-34.5,0-66.3-13.7-91.8-36.7 c-8.1-7.3-20.1-8.5-29.4-2.7c-48.4,29.5-85,76.4-100.9,132.1c-4.3,14.9-1.3,31,8.1,43.5c9.4,12.4,24,19.7,39.6,19.7h344.8 c15.6,0,30.2-7.3,39.6-19.7c9.4-12.4,12.3-28.5,8.1-43.5C599.7,378.3,564.2,332.1,517.2,302.5z"/><path d="M397.4,306.4c67.9,0,122.9-65,122.9-145.2c0-80.2-55-145.1-122.9-145.1c-67.9,0-122.9,65-122.9,145.1 C274.5,241.4,329.6,306.4,397.4,306.4z"/></svg>
