<svg xmlns="http://www.w3.org/2000/svg" viewBox="0 0 640 512"><path d="M120.4,148.6c0-73.5,59.6-133.1,133.1-133.1s133.1,59.6,133.1,133.1S327,281.7,253.5,281.7S120.4,222.1,120.4,148.6z M20.5,474.7c0-102.4,83-185.4,185.4-185.4h95c102.4,0,185.4,83,185.4,185.4c0,17.1-13.8,30.9-30.9,30.9H51.4 C34.4,505.5,20.5,491.7,20.5,474.7z M478,356.6v-66.5h-66.5c-13.8,0-25-11.1-25-25c0-13.8,11.1-25,25-25H478v-66.5 c0-13.8,11.1-25,25-25c13.8,0,25,11.1,25,25v66.5h66.5c13.8,0,25,11.1,25,25c0,13.8-11.1,25-25,25H528v66.5c0,13.8-11.1,25-25,25 C489.2,381.6,478,370.4,478,356.6z"/></svg>
