<svg xmlns="http://www.w3.org/2000/svg" viewBox="0 0 640 512"><path d="M111.5,139c0-76.8,62.3-139,139-139s139,62.3,139,139s-62.3,139-139,139S111.5,215.8,111.5,139z M7.1,479.7 c0-107,86.7-193.7,193.7-193.7H300c107,0,193.7,86.7,193.7,193.7c0,17.9-14.4,32.3-32.3,32.3H39.4C21.6,511.9,7.1,497.5,7.1,479.7z M485.1,356.3v-69.5h-69.5c-14.4,0-26.1-11.6-26.1-26.1c0-14.4,11.6-26.1,26.1-26.1h69.5v-69.5c0-14.4,11.6-26.1,26.1-26.1 c14.4,0,26.1,11.6,26.1,26.1v69.5h69.5c14.4,0,26.1,11.6,26.1,26.1c0,14.4-11.6,26.1-26.1,26.1h-69.5v69.5 c0,14.4-11.6,26.1-26.1,26.1C496.8,382.5,485.1,370.8,485.1,356.3z"/></svg>
