<svg xmlns="http://www.w3.org/2000/svg" viewBox="0 0 795 512"><path d="M155.5,201.5c47.1,0,85.3-45.1,85.3-100.7S202.6,0,155.5,0S70.2,45.1,70.2,100.8C70.2,156.4,108.4,201.5,155.5,201.5z M252.6,278.4c6.2-3.7,13-6.2,20-7.4c-14.3-20.3-24.5-41.9-30.4-67.8c-1.6-9.5-14.6-10.6-24.2-2.8c-18,14.7-39.1,24.6-62.6,24.6 c-24,0-45.9-9.5-63.6-25.5c-5.7-5.1-14-5.9-20.5-1.9c-33.6,20.5-59,53-70,91.7c-3,10.3-0.9,21.5,5.7,30.2 c6.5,8.6,16.6,13.6,27.4,13.6H188C206.4,311.9,228.1,293.3,252.6,278.4z M639.2,201.5c47.1,0,85.3-45.1,85.3-100.7S686.3,0,639.2,0 c-47.1,0-85.3,45.1-85.3,100.7S592.1,201.5,639.2,201.5z M793.2,289.3c-11.1-38.6-36.5-71.1-70-91.7c-6.5-3.9-14.8-3.2-20.5,1.9 c-17.7,16-39.7,25.5-63.6,25.5c-23.5,0-44.6-9.8-62.6-24.6c-9.7-7.9-22.6-6.7-24.2,2.8c-5.9,25.9-16,47.7-30.4,67.8 c7,1.2,13.9,3.6,20,7.4c24.5,14.9,46.3,33.5,64.6,54.7h153.6c10.8,0,20.9-5.1,27.4-13.6C794.2,310.8,796.2,299.6,793.2,289.3z M525,305.5c-9.9-6.2-22.7-5.2-31.5,2.6c-26.9,23.7-60.1,37.7-96.3,37.7c-36.8,0-70.7-14.6-97.9-39.1c-8.6-7.8-21.4-9.1-31.3-2.9 c-51.6,31.5-90.6,81.5-107.6,140.8c-4.6,15.9-1.4,33,8.6,46.4c10,13.2,25.6,21,42.2,21h367.6c16.6,0,32.2-7.8,42.2-21 c10-13.2,13.1-30.4,8.6-46.4C613,386.3,575.1,337,525,305.5z M397.3,309.7c72.4,0,131-69.3,131-154.8S469.7,0.2,397.3,0.2 s-131,69.3-131,154.7C266.3,240.4,325,309.7,397.3,309.7z"/></svg>
